<?xml version="1.0" encoding="UTF-8" standalone="no" ?>
<svg xmlns="http://www.w3.org/2000/svg" xmlns:xlink="http://www.w3.org/1999/xlink" version="1.1" width="108" height="108" viewBox="0 0 108 108" xml:space="preserve">
	<defs>
</defs>
	<rect x="0" y="0" width="100%" height="100%" fill="transparent"></rect>
	<g transform="matrix(1 0 0 1 54 54)" id="a870c419-5eea-4aa7-b1e1-fd4dc28c8f9e"  >
<rect style="stroke: none; stroke-width: 1; stroke-dasharray: none; stroke-linecap: butt; stroke-dashoffset: 0; stroke-linejoin: miter; stroke-miterlimit: 4; fill: rgb(255,255,255); fill-rule: nonzero; opacity: 1; visibility: hidden;" vector-effect="non-scaling-stroke"  x="-54" y="-54" rx="0" ry="0" width="108" height="108" />
</g>
	<g transform="matrix(Infinity NaN NaN Infinity 0 0)" id="3e8ed4ab-4edc-4325-8a90-882d5c7fcff0"  >
</g>
	<g transform="matrix(0.1 0 0 0.1 54 54)"  >
<g>
		<g transform="matrix(0.24 0 0 -0.24 -332.95 25.71)" id="path84"  >
<path style="stroke: none; stroke-width: 1; stroke-dasharray: none; stroke-linecap: butt; stroke-dashoffset: 0; stroke-linejoin: miter; stroke-miterlimit: 4; fill: rgb(139,17,17); fill-rule: nonzero; opacity: 1;" vector-effect="non-scaling-stroke"  transform=" translate(-1874.23, -16207.39)" d="M 1997.94 16195.4 C 1923.42 16173 1849.5500000000002 16148.699999999999 1778.28 16123 C 1773.29 16121.2 1768.19 16120.4 1763.25 16120.4 C 1743.62 16120.4 1725.29 16133.699999999999 1718.64 16154.8 C 1710.4 16181.199999999999 1723.64 16209.699999999999 1748.3100000000002 16218.599999999999 C 1821.0300000000002 16244.8 1896.5000000000002 16269.699999999999 1972.4700000000003 16292.499999999998 C 1997.4900000000002 16299.999999999998 2023.4600000000003 16284.399999999998 2030.5000000000002 16257.599999999999 C 2037.5500000000002 16230.8 2022.9600000000003 16202.999999999998 1997.9400000000003 16195.399999999998" stroke-linecap="round" />
</g>
	<g transform="matrix(0.24 0 0 -0.24 -224.47 -4.08)" id="path88"  >
<path style="stroke: none; stroke-width: 1; stroke-dasharray: none; stroke-linecap: butt; stroke-dashoffset: 0; stroke-linejoin: miter; stroke-miterlimit: 4; fill: rgb(139,17,17); fill-rule: nonzero; opacity: 1;" vector-effect="non-scaling-stroke"  transform=" translate(-2308.12, -16220.67)" d="M 2429.51 16196.5 C 2354.55 16181.7 2279.2900000000004 16165 2205.7700000000004 16146.8 C 2202.2000000000003 16146 2198.6800000000003 16145.5 2195.2100000000005 16145.5 C 2173.9200000000005 16145.5 2154.7200000000007 16161.1 2149.6600000000003 16184.3 C 2143.86 16211.3 2159.59 16238.099999999999 2184.6800000000003 16244.3 C 2259.65 16262.9 2336.2900000000004 16279.9 2412.59 16295 C 2438.04 16300 2462.3500000000004 16282 2467.01 16254.8 C 2471.6800000000003 16227.599999999999 2454.9100000000003 16201.5 2429.51 16196.5" stroke-linecap="round" />
</g>
	<g transform="matrix(0.24 0 0 -0.24 -113.9 -23.19)" id="path92"  >
<path style="stroke: none; stroke-width: 1; stroke-dasharray: none; stroke-linecap: butt; stroke-dashoffset: 0; stroke-linejoin: miter; stroke-miterlimit: 4; fill: rgb(139,17,17); fill-rule: nonzero; opacity: 1;" vector-effect="non-scaling-stroke"  transform=" translate(-2752.12, -16233.51)" d="M 2870.55 16198.2 C 2795.3500000000004 16190.6 2719.3100000000004 16181 2644.46 16169.900000000001 C 2642.28 16169.600000000002 2640.16 16169.400000000001 2637.98 16169.400000000001 C 2615.11 16169.400000000001 2595.14 16187.500000000002 2591.93 16212.400000000001 C 2588.3799999999997 16239.7 2606.16 16264.900000000001 2631.66 16268.7 C 2707.7999999999997 16280 2785.27 16289.7 2861.85 16297.400000000001 C 2887.45 16300.000000000002 2910.13 16279.900000000001 2912.5499999999997 16252.500000000002 C 2914.97 16225.000000000002 2896.14 16200.700000000003 2870.5499999999997 16198.200000000003" stroke-linecap="round" />
</g>
	<g transform="matrix(0.24 0 0 -0.24 -2.2 -31.79)" id="path96"  >
<path style="stroke: none; stroke-width: 1; stroke-dasharray: none; stroke-linecap: butt; stroke-dashoffset: 0; stroke-linejoin: miter; stroke-miterlimit: 4; fill: rgb(139,17,17); fill-rule: nonzero; opacity: 1;" vector-effect="non-scaling-stroke"  transform=" translate(-3205.69, -16246.65)" d="M 3320.48 16200.1 C 3245.39 16199.800000000001 3168.96 16197.6 3093.36 16193.5 C 3092.57 16193.5 3091.79 16193.5 3091.04 16193.5 C 3066.42 16193.5 3045.85 16214.2 3044.62 16240.8 C 3043.33 16268.3 3063.12 16291.699999999999 3088.7799999999997 16293 C 3165.7 16297.1 3243.56 16299.4 3320.0299999999997 16299.8 C 3345.7 16300 3366.6699999999996 16277.699999999999 3366.81 16250.199999999999 C 3366.86 16222.699999999999 3346.19 16200.3 3320.48 16200.099999999999" stroke-linecap="round" />
</g>
	<g transform="matrix(0.24 0 0 -0.24 109.66 -27.46)" id="path100"  >
<path style="stroke: none; stroke-width: 1; stroke-dasharray: none; stroke-linecap: butt; stroke-dashoffset: 0; stroke-linejoin: miter; stroke-miterlimit: 4; fill: rgb(139,17,17); fill-rule: nonzero; opacity: 1;" vector-effect="non-scaling-stroke"  transform=" translate(-3665.11, -16235.47)" d="M 3825.31 16215.9 C 3822.16 16191 3802.21 16172.8 3779.31 16172.8 C 3777.23 16172.8 3775.11 16172.9 3772.99 16173.3 C 3695.6899999999996 16184.5 3619.87 16193 3547.6499999999996 16198.599999999999 C 3521.99 16200.599999999999 3502.74 16224.399999999998 3504.6099999999997 16251.899999999998 C 3506.4399999999996 16279.299999999997 3528.6499999999996 16299.999999999998 3554.3199999999997 16297.999999999998 C 3628.5099999999998 16292.299999999997 3706.2599999999998 16283.499999999998 3785.5299999999997 16271.999999999998 C 3810.95 16268.299999999997 3828.7699999999995 16243.199999999999 3825.31 16215.899999999998" stroke-linecap="round" />
</g>
	<g transform="matrix(0.24 0 0 -0.24 220.21 -8.39)" id="path104"  >
<path style="stroke: none; stroke-width: 1; stroke-dasharray: none; stroke-linecap: butt; stroke-dashoffset: 0; stroke-linejoin: miter; stroke-miterlimit: 4; fill: rgb(139,17,17); fill-rule: nonzero; opacity: 1;" vector-effect="non-scaling-stroke"  transform=" translate(-4133.86, -16219.9)" d="M 4291.98 16182.7 C 4286.879999999999 16159.7 4267.75 16144.1 4246.599999999999 16144.1 C 4243.03 16144.1 4239.41 16144.6 4235.789999999999 16145.5 C 4160.669999999999 16164.5 4085.5499999999993 16181.7 4012.509999999999 16196.5 C 3987.139999999999 16201.7 3970.489999999999 16227.9 3975.299999999999 16255 C 3980.099999999999 16282.1 4004.529999999999 16300 4029.8999999999987 16294.8 C 4104.279999999999 16279.699999999999 4180.839999999998 16262.199999999999 4257.299999999998 16242.9 C 4282.419999999998 16236.5 4297.9299999999985 16209.5 4291.979999999999 16182.699999999999" stroke-linecap="round" />
</g>
	<g transform="matrix(0.25 0 0 -0.25 -404.61 -146.6)" id="path108"  >
<path style="stroke: none; stroke-width: 1; stroke-dasharray: none; stroke-linecap: butt; stroke-dashoffset: 0; stroke-linejoin: miter; stroke-miterlimit: 4; fill: rgb(139,17,17); fill-rule: nonzero; opacity: 1;" vector-effect="non-scaling-stroke"  transform=" translate(-1511.2, -16212.84)" d="M 1631.26 16205.2 C 1558.33 16183 1487.41 16159.1 1420.46 16133.900000000001 C 1415.2 16132.000000000002 1409.8 16131.000000000002 1404.43 16131.000000000002 C 1385.91 16131.000000000002 1368.54 16142.400000000001 1361.65 16160.700000000003 C 1352.8000000000002 16184.300000000003 1364.8100000000002 16210.700000000003 1388.45 16219.600000000002 C 1457.1200000000001 16245.300000000003 1529.8600000000001 16269.900000000001 1604.66 16292.700000000003 C 1628.77 16300.000000000002 1654.28 16286.400000000003 1661.65 16262.300000000003 C 1669.02 16238.200000000003 1655.43 16212.600000000002 1631.26 16205.200000000003" stroke-linecap="round" />
</g>
	<g transform="matrix(0.25 0 0 -0.25 -295.28 -176.96)" id="path112"  >
<path style="stroke: none; stroke-width: 1; stroke-dasharray: none; stroke-linecap: butt; stroke-dashoffset: 0; stroke-linejoin: miter; stroke-miterlimit: 4; fill: rgb(139,17,17); fill-rule: nonzero; opacity: 1;" vector-effect="non-scaling-stroke"  transform=" translate(-1932.53, -16226.24)" d="M 2050.66 16206.1 C 1977.12 16191.4 1904.29 16175.2 1834.1699999999998 16157.9 C 1830.5099999999998 16156.9 1826.8 16156.5 1823.2299999999998 16156.5 C 1802.8399999999997 16156.5 1784.2999999999997 16170.3 1779.2099999999998 16191 C 1773.1699999999998 16215.3 1788.0099999999998 16239.9 1812.35 16245.9 C 1883.8 16263.6 1958.01 16280.199999999999 2032.9299999999998 16295.1 C 2057.56 16300 2081.4199999999996 16284 2086.3199999999997 16259.4 C 2091.22 16234.9 2075.2899999999995 16211 2050.66 16206.1" stroke-linecap="round" />
</g>
	<g transform="matrix(0.25 0 0 -0.25 -183.55 -196.83)" id="path116"  >
<path style="stroke: none; stroke-width: 1; stroke-dasharray: none; stroke-linecap: butt; stroke-dashoffset: 0; stroke-linejoin: miter; stroke-miterlimit: 4; fill: rgb(139,17,17); fill-rule: nonzero; opacity: 1;" vector-effect="non-scaling-stroke"  transform=" translate(-2363.48, -16237.25)" d="M 2479.17 16207.3 C 2405.51 16198.8 2331.79 16188.8 2259.9300000000003 16177.599999999999 C 2257.5600000000004 16177.3 2255.2400000000002 16177.099999999999 2252.92 16177.099999999999 C 2231 16177.099999999999 2211.78 16192.999999999998 2208.32 16215.399999999998 C 2204.44 16239.999999999998 2221.3900000000003 16263.099999999999 2246 16266.999999999998 C 2319.01 16278.299999999997 2393.95 16288.399999999998 2468.76 16297.099999999999 C 2493.57 16299.999999999998 2516.01 16282.199999999999 2518.9 16257.399999999998 C 2521.7400000000002 16232.599999999999 2503.9300000000003 16210.199999999997 2479.17 16207.299999999997" stroke-linecap="round" />
</g>
	<g transform="matrix(0.26 0 0 -0.26 -70.61 -207.77)" id="path120"  >
<path style="stroke: none; stroke-width: 1; stroke-dasharray: none; stroke-linecap: butt; stroke-dashoffset: 0; stroke-linejoin: miter; stroke-miterlimit: 4; fill: rgb(139,17,17); fill-rule: nonzero; opacity: 1;" vector-effect="non-scaling-stroke"  transform=" translate(-2801.48, -16247.22)" d="M 2914.3 16208.8 C 2840.98 16205.699999999999 2766.8 16201.3 2693.9900000000002 16195.699999999999 C 2692.76 16195.599999999999 2691.63 16195.499999999998 2690.44 16195.499999999998 C 2667.11 16195.499999999998 2647.36 16213.499999999998 2645.51 16237.099999999999 C 2643.57 16261.999999999998 2662.1400000000003 16283.699999999999 2686.9900000000002 16285.599999999999 C 2760.94 16291.399999999998 2836.1600000000003 16295.8 2910.6200000000003 16298.899999999998 C 2935.4700000000003 16299.999999999998 2956.5000000000005 16280.599999999999 2957.5400000000004 16255.699999999997 C 2958.5700000000006 16230.799999999997 2939.2000000000003 16209.799999999997 2914.3000000000006 16208.799999999997" stroke-linecap="round" />
</g>
	<g transform="matrix(0.25 0 0 -0.25 156.08 -203.4)" id="path124"  >
<path style="stroke: none; stroke-width: 1; stroke-dasharray: none; stroke-linecap: butt; stroke-dashoffset: 0; stroke-linejoin: miter; stroke-miterlimit: 4; fill: rgb(139,17,17); fill-rule: nonzero; opacity: 1;" vector-effect="non-scaling-stroke"  transform=" translate(-3692.83, -16241.63)" d="M 3848.44 16224.9 C 3845.64 16202 3826.16 16185.199999999999 3803.66 16185.199999999999 C 3801.8599999999997 16185.199999999999 3800.02 16185.3 3798.17 16185.499999999998 C 3724.61 16194.399999999998 3650.65 16201.999999999998 3578.32 16207.899999999998 C 3553.4900000000002 16209.999999999998 3535 16231.799999999997 3537.04 16256.599999999999 C 3539.07 16281.499999999998 3560.92 16299.999999999998 3585.74 16297.899999999998 C 3659.2099999999996 16291.899999999998 3734.3399999999997 16284.199999999997 3809.0499999999997 16275.099999999999 C 3833.7699999999995 16272.099999999999 3851.41 16249.599999999999 3848.4399999999996 16224.899999999998" stroke-linecap="round" />
</g>
	<g transform="matrix(0.27 0 0 -0.27 0 0)" id="path128"  >
<path style="stroke: none; stroke-width: 1; stroke-dasharray: none; stroke-linecap: butt; stroke-dashoffset: 0; stroke-linejoin: miter; stroke-miterlimit: 4; fill: rgb(139,17,17); fill-rule: nonzero; opacity: 1;" vector-effect="non-scaling-stroke"  transform=" translate(-2882.8, -14452.6)" d="M 4596.21 14034.4 C 4402 14113.8 4207.1900000000005 14181.8 4016.34 14236.8 C 3629.1800000000003 14348.3 3264.8900000000003 14404.8 2933.61 14404.8 C 2555.4300000000003 14404.8 2150.3900000000003 14346.199999999999 1762.21 14235.099999999999 C 1558.49 14176.899999999998 1355.93 14102.8 1173.01 14019.699999999999 C 1163.54 14057.3 1155.31 14095.3 1148.27 14133.499999999998 C 1150.31 14130.899999999998 1152.61 14128.599999999999 1155.08 14126.599999999999 C 1162.34 14120.599999999999 1171.28 14117.399999999998 1180.4399999999998 14117.399999999998 C 1186.4599999999998 14117.399999999998 1192.57 14118.699999999997 1198.32 14121.699999999997 C 1257.3 14151.799999999997 1319.9099999999999 14180.999999999996 1384.4199999999998 14208.599999999997 C 1405.7899999999997 14217.699999999997 1416.2399999999998 14243.699999999997 1407.6999999999998 14266.699999999997 C 1399.1599999999999 14289.499999999996 1374.9099999999999 14300.699999999997 1353.4899999999998 14291.499999999996 C 1287.3399999999997 14263.199999999997 1223.0499999999997 14233.199999999997 1162.5199999999998 14202.399999999996 C 1155.6599999999999 14198.899999999996 1150.1299999999997 14193.599999999997 1146.1099999999997 14187.399999999996 C 1143.9399999999996 14183.999999999996 1142.2199999999996 14180.299999999996 1140.9699999999996 14176.399999999996 C 1133.8899999999996 14221.699999999995 1128.4899999999996 14267.199999999995 1124.9499999999996 14312.899999999996 C 1129.5599999999995 14315.599999999997 1134.2499999999995 14318.299999999996 1138.9799999999996 14320.999999999996 C 1139.1199999999997 14321.099999999997 1139.1999999999996 14321.199999999997 1139.3399999999995 14321.299999999996 C 1143.9799999999996 14323.899999999996 1148.6699999999994 14326.499999999996 1153.4099999999994 14329.099999999995 C 1158.2699999999993 14331.799999999996 1163.1899999999994 14334.499999999995 1168.1799999999994 14337.199999999995 C 1170.6699999999994 14338.599999999995 1173.1399999999994 14339.899999999996 1175.7099999999994 14341.199999999995 C 1178.2299999999993 14342.599999999995 1180.7499999999993 14343.899999999996 1183.3199999999993 14345.199999999995 C 1194.9099999999992 14351.299999999996 1206.8099999999993 14357.399999999996 1219.0299999999993 14363.399999999996 C 1221.8599999999992 14364.799999999996 1224.6899999999994 14366.199999999995 1227.5199999999993 14367.599999999997 C 1230.3499999999992 14368.999999999996 1233.2299999999993 14370.399999999996 1236.1099999999992 14371.699999999997 C 1238.979999999999 14373.199999999997 1241.8999999999992 14374.499999999996 1244.7699999999993 14375.899999999998 C 1249.1599999999994 14377.999999999998 1253.5399999999993 14380.099999999999 1257.9599999999994 14382.099999999999 C 1261.8599999999994 14383.899999999998 1265.7999999999993 14385.699999999999 1269.7299999999993 14387.499999999998 C 1273.5399999999993 14389.299999999997 1277.3899999999994 14390.999999999998 1281.2799999999993 14392.799999999997 C 1284.1599999999994 14394.099999999997 1287.0399999999993 14395.399999999998 1289.9499999999994 14396.699999999997 C 1292.8699999999994 14397.999999999996 1295.8399999999995 14399.299999999997 1298.7599999999993 14400.499999999996 C 1310.5299999999993 14405.699999999997 1322.4699999999993 14410.899999999996 1334.5999999999992 14415.899999999996 C 1341.5899999999992 14418.899999999996 1348.6299999999992 14421.799999999996 1355.7499999999993 14424.699999999995 C 1361.0099999999993 14426.799999999996 1366.2799999999993 14428.999999999995 1371.6299999999994 14431.099999999995 C 1377.9199999999994 14433.599999999995 1384.1999999999994 14436.099999999995 1390.5699999999995 14438.599999999995 C 1396.9499999999996 14441.099999999995 1403.3099999999995 14443.599999999995 1409.7799999999995 14445.999999999995 C 1415.7499999999995 14448.299999999994 1421.7199999999996 14450.599999999995 1427.7899999999995 14452.799999999994 C 1435.6599999999994 14455.799999999994 1443.6299999999994 14458.699999999993 1451.5899999999995 14461.699999999993 C 1457.3899999999994 14463.799999999994 1463.1799999999994 14465.899999999994 1469.0199999999995 14467.899999999994 C 1475.7499999999995 14470.399999999994 1482.4699999999996 14472.799999999994 1489.2799999999995 14475.099999999995 C 1496.0999999999995 14477.499999999995 1502.9199999999996 14479.899999999994 1509.8199999999995 14482.199999999995 C 1515.8399999999995 14484.299999999996 1521.8499999999995 14486.299999999996 1527.9599999999996 14488.299999999996 C 1532.4799999999996 14489.799999999996 1536.9899999999996 14491.299999999996 1541.5399999999995 14492.799999999996 C 1546.0599999999995 14494.399999999996 1550.6099999999994 14495.899999999996 1555.1699999999996 14497.299999999996 C 1561.0099999999995 14499.199999999995 1566.8599999999997 14501.099999999995 1572.7399999999996 14502.999999999996 C 1579.8599999999994 14505.299999999996 1586.9899999999996 14507.499999999996 1594.1599999999996 14509.699999999997 C 1601.3199999999997 14511.999999999996 1608.5299999999995 14514.299999999997 1615.7899999999997 14516.399999999998 C 1623.0499999999997 14518.599999999999 1630.2999999999997 14520.899999999998 1637.6099999999997 14522.999999999998 C 1651.4999999999998 14527.199999999999 1665.5199999999998 14531.299999999997 1679.6399999999996 14535.299999999997 C 1685.3899999999996 14536.899999999998 1691.2399999999996 14538.599999999997 1697.0799999999997 14540.199999999997 C 1697.3799999999997 14540.299999999997 1697.6499999999996 14540.399999999998 1697.9599999999998 14540.499999999996 C 1700.09 14540.999999999996 1702.1599999999999 14541.699999999997 1704.2799999999997 14542.199999999997 C 1711.7699999999998 14544.299999999997 1719.2799999999997 14546.399999999998 1726.8499999999997 14548.399999999998 C 2095.9199999999996 14648.599999999999 2513.7499999999995 14703.699999999997 2903.3399999999997 14703.699999999997 C 3273.9599999999996 14703.699999999997 3677.72 14654.499999999996 4040.33 14565.199999999997 C 4051.35 14562.499999999996 4062.3199999999997 14559.699999999997 4073.25 14556.999999999996 C 4091.57 14552.299999999996 4109.75 14547.499999999996 4127.72 14542.699999999997 C 4127.76 14542.699999999997 4127.85 14542.599999999997 4127.89 14542.599999999997 C 4135.01 14540.699999999997 4142.1 14538.699999999997 4149.18 14536.799999999997 C 4154.530000000001 14535.299999999997 4159.84 14533.899999999998 4165.150000000001 14532.399999999998 C 4174.000000000001 14529.899999999998 4182.85 14527.399999999998 4191.610000000001 14524.799999999997 C 4198.64 14522.799999999997 4205.59 14520.799999999997 4212.540000000001 14518.699999999997 C 4217.760000000001 14517.199999999997 4222.9800000000005 14515.599999999997 4228.110000000001 14514.099999999997 C 4241.210000000001 14510.099999999997 4254.130000000001 14506.199999999997 4266.960000000001 14502.199999999997 C 4273.250000000001 14500.199999999997 4279.480000000001 14498.199999999997 4285.680000000001 14496.299999999997 C 4292.760000000001 14493.999999999998 4299.750000000001 14491.799999999997 4306.740000000002 14489.499999999998 C 4313.730000000001 14487.199999999999 4320.630000000002 14484.899999999998 4327.540000000002 14482.599999999999 C 4388.640000000002 14462.3 4446.520000000001 14440.999999999998 4500.230000000001 14418.999999999998 C 4504.080000000002 14417.399999999998 4507.890000000001 14415.899999999998 4511.700000000002 14414.299999999997 C 4514.660000000002 14413.099999999997 4517.670000000002 14411.799999999997 4520.630000000002 14410.599999999997 C 4525.190000000002 14408.699999999997 4529.750000000002 14406.699999999997 4534.210000000002 14404.799999999997 C 4539.790000000002 14402.399999999998 4545.3200000000015 14400.099999999997 4550.770000000002 14397.699999999997 C 4561.690000000002 14392.899999999998 4572.400000000002 14388.099999999997 4582.930000000002 14383.199999999997 C 4593.330000000002 14378.499999999996 4603.510000000002 14373.699999999997 4613.460000000002 14368.899999999998 C 4613.600000000002 14368.799999999997 4613.730000000002 14368.799999999997 4613.8200000000015 14368.699999999997 C 4621.6500000000015 14364.899999999998 4629.350000000001 14361.099999999997 4636.910000000002 14357.299999999997 C 4639.080000000002 14356.299999999997 4641.250000000002 14355.199999999997 4643.380000000002 14353.999999999998 C 4637.450000000002 14246.199999999999 4621.600000000002 14138.899999999998 4596.210000000002 14034.399999999998 z M 2882.77 12689.3 C 2114.99 12689.3 1446.41 13174.3 1207.79 13900 C 1323.32 13953.4 1446.06 14002.7 1572.83 14046.6 C 1699.6 14090.5 1830.35 14129 1961.94 14161.2 C 2288.04 14240.900000000001 2614.99 14281.300000000001 2933.61 14281.300000000001 C 3540.82 14281.300000000001 4148.51 14085.500000000002 4562.62 13914.800000000001 C 4330.99 13191.400000000001 3645.64 12689.300000000001 2882.77 12689.300000000001 z M 1220.84 15043.3 C 1678.57 15243.5 2360.0299999999997 15372.4 2963.74 15372.4 C 3442.1499999999996 15372.4 4076.43 15269.699999999999 4514.7 15122 C 4560.5 15010.4 4594.61 14894.3 4616.5599999999995 14775.8 C 4609.83 14778.4 4603.11 14781.099999999999 4596.299999999999 14783.699999999999 C 4582.049999999999 14789.3 4567.579999999999 14794.8 4552.98 14800.199999999999 C 4540.37 14804.9 4527.62 14809.499999999998 4514.7 14814.099999999999 C 4513.639999999999 14814.499999999998 4512.58 14814.899999999998 4511.5199999999995 14815.3 C 4504.79 14817.699999999999 4497.98 14820.099999999999 4491.169999999999 14822.4 C 4483.949999999999 14825 4476.699999999999 14827.4 4469.44 14829.9 C 4463.15 14832 4456.919999999999 14834.199999999999 4450.589999999999 14836.3 C 4448.469999999999 14837 4446.379999999999 14837.699999999999 4444.259999999999 14838.4 C 4437.929999999999 14840.5 4431.61 14842.6 4425.23 14844.699999999999 C 4416.08 14847.699999999999 4406.87 14850.599999999999 4397.58 14853.599999999999 C 4391.78 14855.399999999998 4385.99 14857.199999999999 4380.15 14858.999999999998 C 4372.58 14861.399999999998 4364.969999999999 14863.799999999997 4357.32 14866.099999999999 C 4344.17 14870.099999999999 4330.94 14874.099999999999 4317.63 14877.999999999998 C 4307.54 14880.999999999998 4297.36 14883.899999999998 4287.1 14886.899999999998 C 4279.4800000000005 14888.999999999998 4271.83 14891.199999999997 4264.13 14893.299999999997 C 4263.95 14893.399999999998 4263.82 14893.399999999998 4263.64 14893.499999999998 C 4256.52 14895.499999999998 4249.400000000001 14897.399999999998 4242.2300000000005 14899.399999999998 C 4231.3 14902.399999999998 4220.320000000001 14905.299999999997 4209.31 14908.199999999997 C 4203.6 14909.699999999997 4197.89 14911.199999999997 4192.1900000000005 14912.799999999997 C 4175.77 14916.999999999998 4159.22 14921.199999999997 4142.580000000001 14925.399999999998 C 4118.470000000001 14931.399999999998 4094.040000000001 14937.299999999997 4069.440000000001 14942.899999999998 C 4059.620000000001 14945.199999999997 4049.750000000001 14947.499999999998 4039.890000000001 14949.699999999997 C 4033.420000000001 14951.199999999997 4026.9700000000007 14952.599999999997 4020.5100000000007 14953.999999999996 C 4014.0900000000006 14955.499999999996 4007.6700000000005 14956.899999999996 4001.2600000000007 14958.199999999997 C 3993.290000000001 14959.999999999996 3985.2800000000007 14961.699999999997 3977.2300000000005 14963.399999999998 C 3939.0900000000006 14971.499999999998 3900.4600000000005 14979.199999999997 3861.3900000000003 14986.499999999998 C 3543.2500000000005 15046.199999999999 3211.9700000000003 15077.799999999997 2903.34 15077.799999999997 C 2481.4900000000002 15077.799999999997 2028.89 15018.099999999997 1628.89 14909.599999999997 C 1606.3200000000002 14903.499999999996 1584.0200000000002 14897.199999999997 1562.0300000000002 14890.799999999997 C 1556.5000000000002 14889.299999999997 1551.0100000000002 14887.599999999997 1545.5700000000002 14885.999999999998 C 1526.8600000000001 14880.499999999998 1508.4 14874.999999999998 1490.13 14869.299999999997 C 1485.0900000000001 14867.799999999997 1480.0400000000002 14866.199999999997 1475.0400000000002 14864.599999999997 C 1453.8000000000002 14857.899999999996 1432.8300000000002 14851.199999999997 1412.2100000000003 14844.299999999997 C 1403.7600000000002 14841.399999999998 1395.3500000000004 14838.599999999997 1386.9900000000002 14835.699999999997 C 1381.8100000000002 14833.999999999996 1376.6800000000003 14832.199999999997 1371.5900000000001 14830.399999999998 C 1366.5000000000002 14828.599999999999 1361.46 14826.899999999998 1356.41 14825.099999999999 C 1351.3700000000001 14823.3 1346.3200000000002 14821.599999999999 1341.3700000000001 14819.699999999999 C 1336.3700000000001 14817.999999999998 1331.41 14816.199999999999 1326.46 14814.3 C 1320 14812 1313.63 14809.699999999999 1307.25 14807.3 C 1294.69 14802.699999999999 1282.3 14798 1270 14793.199999999999 C 1256.1 14787.8 1242.34 14782.4 1228.81 14776.999999999998 C 1223.8 14774.999999999998 1218.85 14772.899999999998 1213.9299999999998 14770.899999999998 C 1213.0099999999998 14770.499999999998 1212.0399999999997 14770.099999999999 1211.11 14769.699999999997 C 1202.9599999999998 14766.399999999998 1194.86 14762.999999999996 1186.81 14759.599999999997 C 1171.94 14753.299999999997 1157.3 14746.999999999996 1142.87 14740.599999999997 C 1159.78 14843.599999999997 1185.9299999999998 14944.999999999996 1220.84 15043.299999999997 z M 2882.77 16215.9 C 3537.7200000000003 16215.9 4140.02 15849.3 4443.47 15274.1 C 4261.030000000001 15329 4051.3900000000003 15377.300000000001 3830.7300000000005 15415.1 C 3526.9200000000005 15467.300000000001 3219.0500000000006 15495.9 2963.7400000000007 15495.9 C 2636.1300000000006 15495.9 2287.8200000000006 15460.8 1956.4900000000007 15394.1 C 1712.8700000000008 15345.2 1483.7600000000007 15280 1287.0800000000008 15204 C 1577.3900000000008 15822 2193.080000000001 16215.9 2882.770000000001 16215.9 z M 4720.72 14640.5 L 4722.31 14639.7 L 4712.05 14712.400000000001 C 4711.96 14712.900000000001 4711.91 14713.400000000001 4711.83 14713.900000000001 C 4710.72 14721.7 4709.57 14729.500000000002 4708.37 14737.300000000001 C 4687.3099999999995 14873.6 4650.94 15007.1 4599.97 15135.2 L 4599.97 15135.2 L 4562.8 15222 C 4417.360000000001 15539.1 4185.77 15808 3893.07 15999.6 C 3592.6800000000003 16196.1 3243.3 16300 2882.7700000000004 16300 C 2506.9300000000003 16300 2145.2100000000005 16187.8 1836.7200000000005 15975.5 C 1535.4900000000005 15768.2 1304.3800000000006 15480 1168.3600000000006 15142 L 1154.1100000000006 15105.7 L 1152.9200000000005 15102.6 L 1147.9200000000005 15088.9 C 1143.4900000000005 15076.8 1139.1600000000005 15064.699999999999 1135.0000000000005 15052.4 C 1095.5300000000004 14937.4 1067.5200000000004 14818.4 1051.5900000000004 14697.8 C 1050.5300000000004 14690.199999999999 1049.6000000000004 14682.599999999999 1048.6700000000003 14675 C 1048.6300000000003 14674.5 1048.5800000000004 14674 1048.5000000000002 14673.6 L 1039.5200000000002 14598.6 L 1041.1500000000003 14599.4 C 1037.3500000000004 14550.699999999999 1035.4000000000003 14501.6 1035.4000000000003 14452.6 C 1035.4000000000003 14412.300000000001 1036.6800000000003 14372.1 1039.2500000000002 14332.9 L 1039.2500000000002 14332.9 C 1040.7100000000003 14309.8 1042.6100000000001 14286.8 1044.9600000000003 14263.9 C 1055.8000000000002 14157.3 1075.8400000000004 14051.699999999999 1104.8700000000003 13949.1 L 1106.0200000000004 13945 L 1106.0200000000004 13945 L 1110.2600000000004 13929.9 L 1110.4000000000005 13929.5 L 1116.3700000000006 13910.1 C 1117.2100000000005 13907.300000000001 1118.1000000000006 13904.5 1118.9800000000005 13901.7 C 1176.2400000000005 13718.1 1261.7200000000005 13545.2 1373.2300000000005 13387.5 C 1484.8700000000006 13229.5 1619.9100000000005 13090.5 1774.6400000000006 12974.4 C 2096.2800000000007 12732.9 2479.4600000000005 12605.199999999999 2882.7700000000004 12605.199999999999 C 3087.6800000000003 12605.199999999999 3289.01 12638.499999999998 3481.1300000000006 12704.3 C 3666.8800000000006 12767.8 3840.7300000000005 12860.4 3997.8100000000004 12979.5 C 4153.160000000001 13097.3 4288.42 13238.1 4399.790000000001 13398 C 4511.380000000001 13558.2 4596.300000000001 13733.8 4652.27 13920 L 4652.8 13919.8 L 4659.570000000001 13944.5 L 4659.740000000001 13945.2 L 4664.660000000001 13963.300000000001 L 4665.410000000001 13966.000000000002 C 4696.030000000001 14078.500000000002 4715.9400000000005 14194.200000000003 4724.790000000001 14310.900000000001 L 4725.850000000001 14310.400000000001 L 4728.640000000001 14377.100000000002 C 4728.640000000001 14377.400000000001 4728.640000000001 14377.700000000003 4728.690000000001 14377.900000000001 C 4728.8600000000015 14382.2 4729.040000000002 14386.500000000002 4729.170000000001 14390.7 C 4729.300000000001 14395.1 4729.390000000001 14399.400000000001 4729.530000000001 14403.7 C 4729.97 14419.800000000001 4730.1900000000005 14436.2 4730.1900000000005 14452.6 C 4730.1900000000005 14515.4 4727.000000000001 14578.300000000001 4720.72 14640.5" stroke-linecap="round" />
</g>
	<g transform="matrix(0.24 0 0 -0.24 328.69 21.62)" id="path132"  >
<path style="stroke: none; stroke-width: 1; stroke-dasharray: none; stroke-linecap: butt; stroke-dashoffset: 0; stroke-linejoin: miter; stroke-miterlimit: 4; fill: rgb(139,17,17); fill-rule: nonzero; opacity: 1;" vector-effect="non-scaling-stroke"  transform=" translate(-4611.6, -16207.91)" d="M 4767.32 16156.2 C 4760.88 16135 4742.42 16121.5 4722.61 16121.5 C 4717.82 16121.5 4712.929999999999 16122.3 4708.099999999999 16124 C 4635.549999999999 16149.2 4561.45 16173.3 4487.849999999999 16195.5 C 4462.86 16203.1 4448.289999999999 16230.8 4455.32 16257.6 C 4462.349999999999 16284.4 4488.349999999999 16300 4513.299999999999 16292.4 C 4588.089999999999 16269.9 4663.44 16245.4 4737.179999999999 16219.699999999999 C 4761.879999999999 16211.099999999999 4775.349999999999 16182.699999999999 4767.32 16156.199999999999" stroke-linecap="round" />
</g>
	<g transform="matrix(0.24 0 0 -0.24 434.45 61.27)" id="path136"  >
<path style="stroke: none; stroke-width: 1; stroke-dasharray: none; stroke-linecap: butt; stroke-dashoffset: 0; stroke-linejoin: miter; stroke-miterlimit: 4; fill: rgb(139,17,17); fill-rule: nonzero; opacity: 1;" vector-effect="non-scaling-stroke"  transform=" translate(-5097.34, -16195.95)" d="M 5249.68 16129.2 C 5241.92 16110.1 5224.450000000001 16098.5 5206.06 16098.5 C 5199.76 16098.5 5193.42 16099.8 5187.370000000001 16102.7 C 5118.920000000001 16134.1 5046.490000000001 16165.2 4971.990000000001 16194.900000000001 C 4947.47 16204.800000000001 4934.9800000000005 16234.000000000002 4944.14 16260.300000000001 C 4953.31 16286.6 4980.660000000001 16300.000000000002 5005.240000000001 16290.2 C 5081.090000000001 16259.900000000001 5154.9800000000005 16228.2 5224.800000000001 16196 C 5248.930000000001 16185 5260.000000000001 16155.1 5249.680000000001 16129.2" stroke-linecap="round" />
</g>
	<g transform="matrix(0.25 0 0 -0.25 268.55 -187.68)" id="path140"  >
<path style="stroke: none; stroke-width: 1; stroke-dasharray: none; stroke-linecap: butt; stroke-dashoffset: 0; stroke-linejoin: miter; stroke-miterlimit: 4; fill: rgb(139,17,17); fill-rule: nonzero; opacity: 1;" vector-effect="non-scaling-stroke"  transform=" translate(-4147.3, -16231.83)" d="M 4301.76 16203.5 C 4297.49 16181.9 4278.570000000001 16167 4257.360000000001 16167 C 4254.47 16167 4251.530000000001 16167.3 4248.540000000001 16167.9 C 4176.680000000001 16182 4103.210000000001 16195 4030.1600000000008 16206.699999999999 C 4005.4500000000007 16210.599999999999 3988.6100000000006 16233.8 3992.540000000001 16258.499999999998 C 3996.480000000001 16283.199999999999 4019.670000000001 16299.999999999998 4044.390000000001 16296.099999999999 C 4118.52 16284.3 4193.090000000001 16271.099999999999 4266.040000000001 16256.699999999999 C 4290.610000000001 16251.9 4306.600000000001 16228.099999999999 4301.760000000001 16203.499999999998" stroke-linecap="round" />
</g>
	<g transform="matrix(0.25 0 0 -0.25 379.47 -163.52)" id="path144"  >
<path style="stroke: none; stroke-width: 1; stroke-dasharray: none; stroke-linecap: butt; stroke-dashoffset: 0; stroke-linejoin: miter; stroke-miterlimit: 4; fill: rgb(139,17,17); fill-rule: nonzero; opacity: 1;" vector-effect="non-scaling-stroke"  transform=" translate(-4607.99, -16221.62)" d="M 4760.49 16180.9 C 4754.7699999999995 16160.8 4736.5599999999995 16147.8 4716.719999999999 16147.8 C 4712.619999999999 16147.8 4708.419999999999 16148.4 4704.2699999999995 16149.599999999999 C 4634.849999999999 16169.3 4562.32 16188.099999999999 4488.749999999999 16205.599999999999 C 4464.289999999999 16211.499999999998 4449.169999999999 16235.999999999998 4454.989999999999 16260.399999999998 C 4460.809999999999 16284.899999999998 4485.359999999999 16299.999999999998 4509.819999999999 16294.199999999997 C 4584.689999999999 16276.399999999998 4658.499999999999 16257.199999999997 4729.109999999999 16237.099999999997 C 4753.339999999998 16230.199999999997 4767.3499999999985 16205.099999999997 4760.489999999999 16180.899999999996" stroke-linecap="round" />
</g>
</g>
</g>
</svg>